{
  "accessors": [
    {
      "bufferView": 2,
      "componentType": 5126,
      "count": 4,
      "max": [
        32.56983184814453,
        0.0,
        32.56983184814453
      ],
      "min": [
        -32.56983184814453,
        0.0,
        -32.56983184814453
      ],
      "type": "VEC3"
    },
    {
      "bufferView": 2,
      "byteOffset": 48,
      "componentType": 5126,
      "count": 4,
      "max": [
        0.0,
        1.0,
        -0.0
      ],
      "min": [
        0.0,
        1.0,
        -0.0
      ],
      "type": "VEC3"
    },
    {
      "bufferView": 1,
      "componentType": 5126,
      "count": 4,
      "max": [
        0.9999998807907104,
        1.0
      ],
      "min": [
        0.0,
        0.0
      ],
      "type": "VEC2"
    },
    {
      "bufferView": 0,
      "componentType": 5125,
      "count": 6,
      "type": "SCALAR"
    },
    {
      "bufferView": 2,
      "byteOffset": 96,
      "componentType": 5126,
      "count": 2144,
      "max": [
        3.3767759799957275,
        1.5152437686920166,
        19.9183292388916
      ],
      "min": [
        -3.401456594467163,
        -1.5152428150177002,
        -19.943452835083008
      ],
      "type": "VEC3"
    },
    {
      "bufferView": 2,
      "byteOffset": 25824,
      "componentType": 5126,
      "count": 2144,
      "max": [
        0.9914483428001404,
        1.0,
        0.9914685487747192
      ],
      "min": [
        -0.9914483428001404,
        -1.0,
        -0.9914522171020508
      ],
      "type": "VEC3"
    },
    {
      "bufferView": 1,
      "byteOffset": 32,
      "componentType": 5126,
      "count": 2144,
      "max": [
        1.0,
        1.0
      ],
      "min": [
        0.0,
        0.0
      ],
      "type": "VEC2"
    },
    {
      "bufferView": 0,
      "byteOffset": 24,
      "componentType": 5125,
      "count": 5616,
      "type": "SCALAR"
    },
    {
      "bufferView": 2,
      "byteOffset": 51552,
      "componentType": 5126,
      "count": 348,
      "max": [
        0.979739248752594,
        1.4698392152786255,
        0.014765510335564613
      ],
      "min": [
        -0.9805235266685486,
        -0.16576941311359406,
        -0.008616676554083824
      ],
      "type": "VEC3"
    },
    {
      "bufferView": 2,
      "byteOffset": 55728,
      "componentType": 5126,
      "count": 348,
      "max": [
        1.0,
        1.0,
        0.7064961791038513
      ],
      "min": [
        -1.0,
        -1.0,
        -1.0
      ],
      "type": "VEC3"
    },
    {
      "bufferView": 1,
      "byteOffset": 17184,
      "componentType": 5126,
      "count": 348,
      "max": [
        0.6129259467124939,
        0.5166668891906738
      ],
      "min": [
        0.36550769209861755,
        0.030459854751825333
      ],
      "type": "VEC2"
    },
    {
      "bufferView": 0,
      "byteOffset": 22488,
      "componentType": 5125,
      "count": 1626,
      "type": "SCALAR"
    },
    {
      "bufferView": 2,
      "byteOffset": 59904,
      "componentType": 5126,
      "count": 56,
      "max": [
        0.7585573196411133,
        0.9403021931648254,
        0.11430139094591141
      ],
      "min": [
        -0.7587203979492188,
        -1.4554795026779175,
        -0.03173285350203514
      ],
      "type": "VEC3"
    },
    {
      "bufferView": 2,
      "byteOffset": 60576,
      "componentType": 5126,
      "count": 56,
      "max": [
        1.0,
        1.0,
        -0.0
      ],
      "min": [
        -1.0,
        -1.0,
        -1.0
      ],
      "type": "VEC3"
    },
    {
      "bufferView": 1,
      "byteOffset": 19968,
      "componentType": 5126,
      "count": 56,
      "max": [
        0.6687018275260925,
        0.8774742484092712
      ],
      "min": [
        0.342149555683136,
        0.0057568736374378204
      ],
      "type": "VEC2"
    },
    {
      "bufferView": 0,
      "byteOffset": 28992,
      "componentType": 5125,
      "count": 108,
      "type": "SCALAR"
    },
    {
      "bufferView": 2,
      "byteOffset": 61248,
      "componentType": 5126,
      "count": 560,
      "max": [
        18.830625534057617,
        0.02892279624938965,
        15.10957145690918
      ],
      "min": [
        -35.78847885131836,
        -0.06105494499206543,
        -26.463768005371094
      ],
      "type": "VEC3"
    },
    {
      "bufferView": 2,
      "byteOffset": 67968,
      "componentType": 5126,
      "count": 560,
      "max": [
        1.0,
        0.0,
        1.0
      ],
      "min": [
        -1.0,
        -1.0,
        -1.0
      ],
      "type": "VEC3"
    },
    {
      "bufferView": 1,
      "byteOffset": 20416,
      "componentType": 5126,
      "count": 560,
      "max": [
        0.625,
        1.0
      ],
      "min": [
        0.125,
        0.0
      ],
      "type": "VEC2"
    },
    {
      "bufferView": 0,
      "byteOffset": 29424,
      "componentType": 5125,
      "count": 840,
      "type": "SCALAR"
    },
    {
      "bufferView": 2,
      "byteOffset": 74688,
      "componentType": 5126,
      "count": 560,
      "max": [
        18.97015953063965,
        0.06470870971679688,
        15.249105453491211
      ],
      "min": [
        -35.928016662597656,
        -0.032576560974121094,
        -26.603303909301758
      ],
      "type": "VEC3"
    },
    {
      "bufferView": 2,
      "byteOffset": 81408,
      "componentType": 5126,
      "count": 560,
      "max": [
        0.7011675238609314,
        -0.7129966616630554,
        0.7011674642562866
      ],
      "min": [
        -0.7011536955833435,
        -1.0,
        -0.7011674642562866
      ],
      "type": "VEC3"
    },
    {
      "bufferView": 1,
      "byteOffset": 24896,
      "componentType": 5126,
      "count": 560,
      "max": [
        0.625,
        1.0
      ],
      "min": [
        0.125,
        0.0
      ],
      "type": "VEC2"
    },
    {
      "bufferView": 0,
      "byteOffset": 32784,
      "componentType": 5125,
      "count": 840,
      "type": "SCALAR"
    },
    {
      "bufferView": 2,
      "byteOffset": 88128,
      "componentType": 5126,
      "count": 43320,
      "max": [
        18.236251831054688,
        0.07697592675685883,
        22.39214515686035
      ],
      "min": [
        -27.894315719604492,
        -0.07735446840524673,
        -24.55642318725586
      ],
      "type": "VEC3"
    },
    {
      "bufferView": 2,
      "byteOffset": 607968,
      "componentType": 5126,
      "count": 43320,
      "max": [
        1.0,
        0.996512234210968,
        1.0
      ],
      "min": [
        -0.9994849562644958,
        -0.9962911009788513,
        -1.0
      ],
      "type": "VEC3"
    },
    {
      "bufferView": 1,
      "byteOffset": 29376,
      "componentType": 5126,
      "count": 43320,
      "max": [
        1.0,
        1.0
      ],
      "min": [
        0.0,
        0.0
      ],
      "type": "VEC2"
    },
    {
      "bufferView": 0,
      "byteOffset": 36144,
      "componentType": 5125,
      "count": 69696,
      "type": "SCALAR"
    },
    {
      "bufferView": 2,
      "byteOffset": 1127808,
      "componentType": 5126,
      "count": 4,
      "max": [
        32.57996368408203,
        0.0,
        32.57996368408203
      ],
      "min": [
        -32.57996368408203,
        0.0,
        -32.57996368408203
      ],
      "type": "VEC3"
    },
    {
      "bufferView": 2,
      "byteOffset": 1127856,
      "componentType": 5126,
      "count": 4,
      "max": [
        0.0,
        1.0,
        -0.0
      ],
      "min": [
        0.0,
        1.0,
        -0.0
      ],
      "type": "VEC3"
    },
    {
      "bufferView": 1,
      "byteOffset": 375936,
      "componentType": 5126,
      "count": 4,
      "max": [
        0.9999998807907104,
        1.0
      ],
      "min": [
        0.0,
        0.0
      ],
      "type": "VEC2"
    },
    {
      "bufferView": 0,
      "byteOffset": 314928,
      "componentType": 5125,
      "count": 6,
      "type": "SCALAR"
    },
    {
      "bufferView": 2,
      "byteOffset": 1127904,
      "componentType": 5126,
      "count": 2348,
      "max": [
        26.437210083007813,
        1.6219476461410522,
        17.99582290649414
      ],
      "min": [
        -37.895240783691406,
        -1.606508731842041,
        -30.40645980834961
      ],
      "type": "VEC3"
    },
    {
      "bufferView": 2,
      "byteOffset": 1156080,
      "componentType": 5126,
      "count": 2348,
      "max": [
        1.0,
        1.0,
        1.0
      ],
      "min": [
        -1.0,
        -1.0,
        -1.0
      ],
      "type": "VEC3"
    },
    {
      "bufferView": 1,
      "byteOffset": 375968,
      "componentType": 5126,
      "count": 2348,
      "max": [
        0.9989989995956421,
        0.9989989995956421
      ],
      "min": [
        0.0010010009864345193,
        0.0010010009864345193
      ],
      "type": "VEC2"
    },
    {
      "bufferView": 0,
      "byteOffset": 314952,
      "componentType": 5125,
      "count": 3522,
      "type": "SCALAR"
    },
    {
      "bufferView": 2,
      "byteOffset": 1184256,
      "componentType": 5126,
      "count": 884,
      "max": [
        26.45890998840332,
        1.4740945100784302,
        15.950666427612305
      ],
      "min": [
        -37.54109191894531,
        -1.6541780233383179,
        -32.22062301635742
      ],
      "type": "VEC3"
    },
    {
      "bufferView": 2,
      "byteOffset": 1194864,
      "componentType": 5126,
      "count": 884,
      "max": [
        1.0,
        1.0,
        1.0
      ],
      "min": [
        -1.0,
        -1.0,
        -1.0
      ],
      "type": "VEC3"
    },
    {
      "bufferView": 1,
      "byteOffset": 394752,
      "componentType": 5126,
      "count": 884,
      "max": [
        1.0,
        0.9994955062866211
      ],
      "min": [
        0.0,
        0.0
      ],
      "type": "VEC2"
    },
    {
      "bufferView": 0,
      "byteOffset": 329040,
      "componentType": 5125,
      "count": 1398,
      "type": "SCALAR"
    },
    {
      "bufferView": 2,
      "byteOffset": 1205472,
      "componentType": 5126,
      "count": 16,
      "max": [
        1.0759062767028809,
        0.9133217930793762,
        -0.0
      ],
      "min": [
        -1.0697484016418457,
        -1.579543948173523,
        -0.0
      ],
      "type": "VEC3"
    },
    {
      "bufferView": 2,
      "byteOffset": 1205664,
      "componentType": 5126,
      "count": 16,
      "max": [
        0.0,
        0.0,
        -1.0
      ],
      "min": [
        0.0,
        0.0,
        -1.0
      ],
      "type": "VEC3"
    },
    {
      "bufferView": 1,
      "byteOffset": 401824,
      "componentType": 5126,
      "count": 16,
      "max": [
        0.7925442457199097,
        0.98828125
      ],
      "min": [
        0.22308069467544556,
        0.0468749925494194
      ],
      "type": "VEC2"
    },
    {
      "bufferView": 0,
      "byteOffset": 334632,
      "componentType": 5125,
      "count": 30,
      "type": "SCALAR"
    }
  ],
  "asset": {
    "extras": {
      "author": "Huuxloc (https://sketchfab.com/rjh41)",
      "license": "CC-BY-4.0 (http://creativecommons.org/licenses/by/4.0/)",
      "source": "https://sketchfab.com/3d-models/backrooms-another-level-429f3c9ea8024f5e9bb78f6649c7bd26",
      "title": "Backrooms Another Level"
    },
    "generator": "Sketchfab-12.82.3",
    "version": "2.0"
  },
  "bufferViews": [
    {
      "buffer": 0,
      "byteLength": 334752,
      "name": "floatBufferViews",
      "target": 34963
    },
    {
      "buffer": 0,
      "byteLength": 401952,
      "byteOffset": 334752,
      "byteStride": 8,
      "name": "floatBufferViews",
      "target": 34962
    },
    {
      "buffer": 0,
      "byteLength": 1205856,
      "byteOffset": 736704,
      "byteStride": 12,
      "name": "floatBufferViews",
      "target": 34962
    }
  ],
  "buffers": [
    {
      "byteLength": 1942560,
      "uri": "scene.bin"
    }
  ],
  "extensionsUsed": [
    "KHR_materials_unlit"
  ],
  "images": [
    {
      "uri": "textures/CarpetBake4_baseColor.png"
    },
    {
      "uri": "textures/ColumnsBaked_baseColor.png"
    },
    {
      "uri": "textures/LiftBake_baseColor.png"
    },
    {
      "uri": "textures/PlugsBaked_baseColor.png"
    },
    {
      "uri": "textures/RoofBaked_baseColor.png"
    },
    {
      "uri": "textures/SkirtingsBaked.001_baseColor.png"
    },
    {
      "uri": "textures/WallsBaked_baseColor.png"
    }
  ],
  "materials": [
    {
      "doubleSided": true,
      "extensions": {
        "KHR_materials_unlit": {}
      },
      "name": "CarpetBake4",
      "pbrMetallicRoughness": {
        "baseColorTexture": {
          "index": 0
        },
        "metallicFactor": 0.0
      }
    },
    {
      "doubleSided": true,
      "extensions": {
        "KHR_materials_unlit": {}
      },
      "name": "ColumnsBaked",
      "pbrMetallicRoughness": {
        "baseColorTexture": {
          "index": 1
        },
        "metallicFactor": 0.0
      }
    },
    {
      "doubleSided": true,
      "extensions": {
        "KHR_materials_unlit": {}
      },
      "name": "LiftBake",
      "pbrMetallicRoughness": {
        "baseColorTexture": {
          "index": 2
        },
        "metallicFactor": 0.0
      }
    },
    {
      "doubleSided": true,
      "emissiveFactor": [
        0.911381,
        0.911381,
        0.911381
      ],
      "extensions": {
        "KHR_materials_unlit": {}
      },
      "name": "light",
      "pbrMetallicRoughness": {
        "baseColorFactor": [
          0.8,
          0.8,
          0.8,
          1.0
        ],
        "metallicFactor": 0.0
      }
    },
    {
      "doubleSided": true,
      "extensions": {
        "KHR_materials_unlit": {}
      },
      "name": "Lightsurround",
      "pbrMetallicRoughness": {
        "baseColorFactor": [
          0.073235,
          0.073235,
          0.073235,
          1.0
        ],
        "metallicFactor": 0.0
      }
    },
    {
      "doubleSided": true,
      "extensions": {
        "KHR_materials_unlit": {}
      },
      "name": "PlugsBaked",
      "pbrMetallicRoughness": {
        "baseColorTexture": {
          "index": 3
        },
        "metallicFactor": 0.0
      }
    },
    {
      "doubleSided": true,
      "extensions": {
        "KHR_materials_unlit": {}
      },
      "name": "RoofBaked",
      "pbrMetallicRoughness": {
        "baseColorTexture": {
          "index": 4
        },
        "metallicFactor": 0.0
      }
    },
    {
      "doubleSided": true,
      "extensions": {
        "KHR_materials_unlit": {}
      },
      "name": "SkirtingsBaked.001",
      "pbrMetallicRoughness": {
        "baseColorTexture": {
          "index": 5
        },
        "metallicFactor": 0.0
      }
    },
    {
      "doubleSided": true,
      "extensions": {
        "KHR_materials_unlit": {}
      },
      "name": "WallsBaked",
      "pbrMetallicRoughness": {
        "baseColorTexture": {
          "index": 6
        },
        "metallicFactor": 0.0
      }
    }
  ],
  "meshes": [
    {
      "name": "Object_0",
      "primitives": [
        {
          "attributes": {
            "NORMAL": 1,
            "POSITION": 0,
            "TEXCOORD_0": 2
          },
          "indices": 3,
          "material": 0,
          "mode": 4
        }
      ]
    },
    {
      "name": "Object_1",
      "primitives": [
        {
          "attributes": {
            "NORMAL": 5,
            "POSITION": 4,
            "TEXCOORD_0": 6
          },
          "indices": 7,
          "material": 1,
          "mode": 4
        }
      ]
    },
    {
      "name": "Object_2",
      "primitives": [
        {
          "attributes": {
            "NORMAL": 9,
            "POSITION": 8,
            "TEXCOORD_0": 10
          },
          "indices": 11,
          "material": 2,
          "mode": 4
        }
      ]
    },
    {
      "name": "Object_3",
      "primitives": [
        {
          "attributes": {
            "NORMAL": 13,
            "POSITION": 12,
            "TEXCOORD_0": 14
          },
          "indices": 15,
          "material": 2,
          "mode": 4
        }
      ]
    },
    {
      "name": "Object_4",
      "primitives": [
        {
          "attributes": {
            "NORMAL": 17,
            "POSITION": 16,
            "TEXCOORD_0": 18
          },
          "indices": 19,
          "material": 3,
          "mode": 4
        }
      ]
    },
    {
      "name": "Object_5",
      "primitives": [
        {
          "attributes": {
            "NORMAL": 21,
            "POSITION": 20,
            "TEXCOORD_0": 22
          },
          "indices": 23,
          "material": 4,
          "mode": 4
        }
      ]
    },
    {
      "name": "Object_6",
      "primitives": [
        {
          "attributes": {
            "NORMAL": 25,
            "POSITION": 24,
            "TEXCOORD_0": 26
          },
          "indices": 27,
          "material": 5,
          "mode": 4
        }
      ]
    },
    {
      "name": "Object_7",
      "primitives": [
        {
          "attributes": {
            "NORMAL": 29,
            "POSITION": 28,
            "TEXCOORD_0": 30
          },
          "indices": 31,
          "material": 6,
          "mode": 4
        }
      ]
    },
    {
      "name": "Object_8",
      "primitives": [
        {
          "attributes": {
            "NORMAL": 33,
            "POSITION": 32,
            "TEXCOORD_0": 34
          },
          "indices": 35,
          "material": 7,
          "mode": 4
        }
      ]
    },
    {
      "name": "Object_9",
      "primitives": [
        {
          "attributes": {
            "NORMAL": 37,
            "POSITION": 36,
            "TEXCOORD_0": 38
          },
          "indices": 39,
          "material": 8,
          "mode": 4
        }
      ]
    },
    {
      "name": "Object_10",
      "primitives": [
        {
          "attributes": {
            "NORMAL": 41,
            "POSITION": 40,
            "TEXCOORD_0": 42
          },
          "indices": 43,
          "material": 2,
          "mode": 4
        }
      ]
    }
  ],
  "nodes": [
    {
      "children": [
        1
      ],
      "matrix": [
        0.9523809552192688,
        0.0,
        0.0,
        0.0,
        0.0,
        2.1147105293978647e-16,
        -0.9523809552192688,
        0.0,
        0.0,
        0.9523809552192688,
        2.1147105293978647e-16,
        0.0,
        0.0,
        0.0,
        0.0,
        1.0
      ],
      "name": "Sketchfab_model"
    },
    {
      "children": [
        2
      ],
      "name": "root"
    },
    {
      "children": [
        3,
        5,
        7,
        9,
        11,
        14,
        16,
        18,
        20,
        22
      ],
      "matrix": [
        1.0,
        0.0,
        0.0,
        0.0,
        0.0,
        2.220446049250313e-16,
        1.0,
        0.0,
        0.0,
        -1.0,
        2.220446049250313e-16,
        0.0,
        0.0,
        0.0,
        0.0,
        1.0
      ],
      "name": "GLTF_SceneRootNode"
    },
    {
      "children": [
        4
      ],
      "name": "carpetSquare.001_1"
    },
    {
      "mesh": 0,
      "name": "Object_4"
    },
    {
      "children": [
        6
      ],
      "matrix": [
        1.0,
        0.0,
        0.0,
        0.0,
        0.0,
        1.0,
        0.0,
        0.0,
        0.0,
        0.0,
        1.0,
        0.0,
        24.649808883666992,
        1.497389793395996,
        -1.9261325597763062,
        1.0
      ],
      "name": "Columns.001_2"
    },
    {
      "mesh": 1,
      "name": "Object_6"
    },
    {
      "children": [
        8
      ],
      "matrix": [
        1.0,
        0.0,
        0.0,
        0.0,
        0.0,
        1.0,
        0.0,
        0.0,
        0.0,
        0.0,
        1.0,
        0.0,
        8.413982391357422,
        1.1170116662979126,
        21.713979721069336,
        1.0
      ],
      "name": "LiftDirector_3"
    },
    {
      "mesh": 2,
      "name": "Object_8"
    },
    {
      "children": [
        10
      ],
      "matrix": [
        1.0,
        0.0,
        0.0,
        0.0,
        0.0,
        1.0,
        0.0,
        0.0,
        0.0,
        0.0,
        1.0,
        0.0,
        8.422093391418457,
        1.4355806112289429,
        21.73598861694336,
        1.0
      ],
      "name": "LiftDoors_4"
    },
    {
      "mesh": 3,
      "name": "Object_10"
    },
    {
      "children": [
        12,
        13
      ],
      "matrix": [
        1.0,
        0.0,
        0.0,
        0.0,
        0.0,
        1.0,
        0.0,
        0.0,
        0.0,
        0.0,
        1.0,
        0.0,
        11.399524688720703,
        2.977961778640747,
        3.831486225128174,
        1.0
      ],
      "name": "lights.003_6"
    },
    {
      "mesh": 4,
      "name": "Object_12"
    },
    {
      "mesh": 5,
      "name": "Object_13"
    },
    {
      "children": [
        15
      ],
      "matrix": [
        1.0,
        0.0,
        0.0,
        0.0,
        0.0,
        1.0,
        0.0,
        0.0,
        0.0,
        0.0,
        1.0,
        0.0,
        8.142989158630371,
        0.25443217158317566,
        -0.6686043739318848,
        1.0
      ],
      "name": "Plug Socket.003_7"
    },
    {
      "mesh": 6,
      "name": "Object_15"
    },
    {
      "children": [
        17
      ],
      "matrix": [
        -0.9999999999999467,
        3.258413698858844e-07,
        0.0,
        0.0,
        -3.258413698858844e-07,
        -0.9999999999999467,
        -0.0,
        0.0,
        -0.0,
        0.0,
        1.0,
        0.0,
        -0.14678525924682617,
        2.9674296379089355,
        -0.16303768754005432,
        1.0
      ],
      "name": "Roof2.002_8"
    },
    {
      "mesh": 7,
      "name": "Object_17"
    },
    {
      "children": [
        19
      ],
      "matrix": [
        1.0,
        0.0,
        0.0,
        0.0,
        0.0,
        1.0,
        0.0,
        0.0,
        0.0,
        0.0,
        1.0,
        0.0,
        6.1947550773620605,
        1.5052040815353394,
        3.934891700744629,
        1.0
      ],
      "name": "skirtings.002_9"
    },
    {
      "mesh": 8,
      "name": "Object_19"
    },
    {
      "children": [
        21
      ],
      "matrix": [
        1.0,
        0.0,
        0.0,
        0.0,
        0.0,
        1.0,
        0.0,
        0.0,
        0.0,
        0.0,
        1.0,
        0.0,
        5.96560525894165,
        1.6271008253097534,
        5.939688205718994,
        1.0
      ],
      "name": "outerWalls.002_10"
    },
    {
      "mesh": 9,
      "name": "Object_21"
    },
    {
      "children": [
        23
      ],
      "matrix": [
        1.0,
        0.0,
        0.0,
        0.0,
        0.0,
        1.0,
        0.0,
        0.0,
        0.0,
        0.0,
        1.0,
        0.0,
        8.421438217163086,
        1.6807392835617065,
        21.719066619873047,
        1.0
      ],
      "name": "outerWalls.003_11"
    },
    {
      "mesh": 10,
      "name": "Object_23"
    }
  ],
  "samplers": [
    {
      "magFilter": 9729,
      "minFilter": 9987,
      "wrapS": 10497,
      "wrapT": 10497
    }
  ],
  "scene": 0,
  "scenes": [
    {
      "name": "Sketchfab_Scene",
      "nodes": [
        0
      ]
    }
  ],
  "textures": [
    {
      "sampler": 0,
      "source": 0
    },
    {
      "sampler": 0,
      "source": 1
    },
    {
      "sampler": 0,
      "source": 2
    },
    {
      "sampler": 0,
      "source": 3
    },
    {
      "sampler": 0,
      "source": 4
    },
    {
      "sampler": 0,
      "source": 5
    },
    {
      "sampler": 0,
      "source": 6
    }
  ]
}
